<svg viewBox="0 0 24 24" fill="currentColor" aria-hidden="true">
    <path fill-rule="evenodd" d="M11.2929 2.29289C11.6834 1.90237 12.3166 1.90237 12.7071 2.29289L16.7071 6.29289C17.0976 6.68342 17.0976 7.31658 16.7071 7.70711C16.3166 8.09763 15.6834 8.09763 15.2929 7.70711L12 4.41421L8.70711 7.70711C8.31658 8.09763 7.68342 8.09763 7.29289 7.70711C6.90237 7.31658 6.90237 6.68342 7.29289 6.29289L11.2929 2.29289ZM7.29289 16.2929C7.68342 15.9024 8.31658 15.9024 8.70711 16.2929L12 19.5858L15.2929 16.2929C15.6834 15.9024 16.3166 15.9024 16.7071 16.2929C17.0976 16.6834 17.0976 17.3166 16.7071 17.7071L12.7071 21.7071C12.3166 22.0976 11.6834 22.0976 11.2929 21.7071L7.29289 17.7071C6.90237 17.3166 6.90237 16.6834 7.29289 16.2929Z" clip-rule="evenodd"></path>
</svg>