<svg viewBox="0 0 24 24" fill="currentColor" aria-hidden="true">
    <path fill-rule="evenodd" d="M19.5 9C21.9853 9 24 6.98528 24 4.5C24 2.01472 21.9853 0 19.5 0C17.0147 0 15 2.01472 15 4.5C15 6.98528 17.0147 9 19.5 9ZM17.5 5C17.2236 5 17 4.77612 17 4.5C17 4.22388 17.2236 4 17.5 4H19V2.5C19 2.22388 19.2236 2 19.5 2C19.7764 2 20 2.22388 20 2.5V4H21.5C21.7764 4 22 4.22388 22 4.5C22 4.63647 21.9453 4.76019 21.8569 4.8504C21.7661 4.94275 21.6396 5 21.5 5H20V6.5C20 6.77612 19.7764 7 19.5 7C19.2236 7 19 6.77612 19 6.5V5H17.5Z" clip-rule="evenodd"></path><path d="M14.0907 5.50002H12.72L12.4 4.50002C12.1926 3.91325 11.8077 3.40553 11.2989 3.04718C10.7901 2.68884 10.1824 2.49762 9.56 2.50002H5C4.20435 2.50002 3.44129 2.81609 2.87868 3.3787C2.31607 3.94131 2 4.70437 2 5.50002V18.5C2 19.2957 2.31607 20.0587 2.87868 20.6213C3.44129 21.184 4.20435 21.5 5 21.5H19C19.7956 21.5 20.5587 21.184 21.1213 20.6213C21.6839 20.0587 22 19.2957 22 18.5V9.40029C21.3904 9.71194 20.7149 9.91315 20 9.97758V18.5C20 18.7652 19.8946 19.0196 19.7071 19.2071C19.5196 19.3947 19.2652 19.5 19 19.5H5C4.73478 19.5 4.48043 19.3947 4.29289 19.2071C4.10536 19.0196 4 18.7652 4 18.5V5.50002C4 5.23481 4.10536 4.98045 4.29289 4.79292C4.48043 4.60538 4.73478 4.50002 5 4.50002H9.56C9.76964 4.49948 9.97416 4.56484 10.1446 4.68686C10.3151 4.80889 10.4429 4.9814 10.51 5.18002L11.05 6.82002C11.1171 7.01864 11.2449 7.19116 11.4154 7.31318C11.5858 7.4352 11.7904 7.50056 12 7.50002H14.8895C14.5005 6.90345 14.2242 6.22673 14.0907 5.50002Z"></path>
</svg>