<svg viewBox="0 0 24 24" fill="currentColor" aria-hidden="true">
    <path fill-rule="evenodd" d="M8.70711 3.29289C9.09763 3.68342 9.09763 4.31658 8.70711 4.70711L6.41421 7H15.5C19.0899 7 22 9.91015 22 13.5C22 17.0899 19.0899 20 15.5 20H6C5.44772 20 5 19.5523 5 19C5 18.4477 5.44772 18 6 18H15.5C17.9853 18 20 15.9853 20 13.5C20 11.0147 17.9853 9 15.5 9H6.41421L8.70711 11.2929C9.09763 11.6834 9.09763 12.3166 8.70711 12.7071C8.31658 13.0976 7.68342 13.0976 7.29289 12.7071L3.29289 8.70711C2.90237 8.31658 2.90237 7.68342 3.29289 7.29289L7.29289 3.29289C7.68342 2.90237 8.31658 2.90237 8.70711 3.29289Z" clip-rule="evenodd"></path>
</svg>