<svg viewBox="0 0 24 24" fill="currentColor" aria-hidden="true">
    <path d="M12 18.9878C11.8022 18.9878 11.6089 19.0464 11.4444 19.1562C11.28 19.266 11.1518 19.4221 11.0761 19.6047C11.0004 19.7873 10.9806 19.9882 11.0192 20.1821C11.0578 20.3759 11.153 20.554 11.2929 20.6937C11.4327 20.8335 11.6109 20.9286 11.8049 20.9672C11.9989 21.0058 12.2 20.986 12.3827 20.9103C12.5654 20.8347 12.7216 20.7066 12.8315 20.5423C12.9414 20.378 13 20.1848 13 19.9871C13 19.7221 12.8946 19.4679 12.7071 19.2805C12.5196 19.0931 12.2652 18.9878 12 18.9878ZM18 2H6C5.73478 2 5.48043 2.10528 5.29289 2.29268C5.10536 2.48009 5 2.73426 5 2.99928V11.9928C5 12.7879 5.31607 13.5504 5.87868 14.1126C6.44129 14.6749 7.20435 14.9907 8 14.9907H9V17.359C8.49083 17.9359 8.15907 18.6474 8.04453 19.4081C7.92999 20.1688 8.03753 20.9463 8.35425 21.6474C8.67097 22.3486 9.18341 22.9434 9.83009 23.3607C10.4768 23.778 11.2302 24 12 24C12.7698 24 13.5232 23.778 14.1699 23.3607C14.8166 22.9434 15.329 22.3486 15.6458 21.6474C15.9625 20.9463 16.07 20.1688 15.9555 19.4081C15.8409 18.6474 15.5092 17.9359 15 17.359V14.9907H16C16.7956 14.9907 17.5587 14.6749 18.1213 14.1126C18.6839 13.5504 19 12.7879 19 11.9928V2.99928C19 2.73426 18.8946 2.48009 18.7071 2.29268C18.5196 2.10528 18.2652 2 18 2ZM12 21.9857C11.5976 21.9826 11.2055 21.8584 10.8749 21.6291C10.5443 21.3999 10.2906 21.0763 10.1469 20.7007C10.0033 20.3251 9.97635 19.9149 10.0697 19.5237C10.163 19.1326 10.3722 18.7786 10.67 18.5082C10.7736 18.4148 10.8565 18.3007 10.9133 18.1733C10.9701 18.046 10.9997 17.9082 11 17.7687V14.9907H13V17.7687C13.0003 17.9082 13.0299 18.046 13.0867 18.1733C13.1435 18.3007 13.2264 18.4148 13.33 18.5082C13.6278 18.7786 13.837 19.1326 13.9303 19.5237C14.0236 19.9149 13.9967 20.3251 13.8531 20.7007C13.7094 21.0763 13.4557 21.3999 13.1251 21.6291C12.7945 21.8584 12.4024 21.9826 12 21.9857ZM17 11.9928C17 12.2579 16.8946 12.512 16.7071 12.6994C16.5196 12.8868 16.2652 12.9921 16 12.9921H8C7.73478 12.9921 7.48043 12.8868 7.29289 12.6994C7.10536 12.512 7 12.2579 7 11.9928V10.9936H17V11.9928ZM17 8.99499H7V3.99857H17V8.99499Z"></path>
</svg>