<svg viewBox="0 0 24 24" fill="currentColor" aria-hidden="true">
    <g>
        <path d="m13 8.50002c.5523 0 1-.44771 1-1 0-.55228-.4477-1-1-1s-1 .44772-1 1c0 .55229.4477 1 1 1z"></path><path fill-rule="evenodd" d="m14.8854 2.77312c1.6423-.21897 3.1512.93488 3.3702 2.5772l1.4713 11.03508c.219 1.6423-.9349 3.1512-2.5772 3.3702l-11.03506 1.4713c-1.64232.219-3.1512-.9349-3.37017-2.5772l-1.47135-11.03506c-.21897-1.64232.93488-3.1512 2.5772-3.37017zm1.3877 2.84152c-.073-.54744-.5759-.93205-1.1234-.85906l-11.03506 1.47134c-.54744.073-.93205.57596-.85906 1.12339l.88403 6.63029 1.86041-2.4806c.99412-1.3255 2.87452-1.59409 4.19998-.6l1.64 1.23.7034-.8441c1.0053-1.2063 2.7706-1.43334 4.0484-.5207l.4068.2906zm-2.8731 10.18536-4.39998-3.3c-.44182-.3313-1.06863-.2418-1.4.2l-3.08305 4.1108.20995 1.5746c.073.5474.57596.9321 1.12339.8591l11.03509-1.4714c.5474-.073.9321-.5759.8591-1.1234l-.3837-2.8773-1.9315-1.3797c-.4259-.3042-1.0144-.2285-1.3494.1736l-.6378.7653 1.1579.8684c.4419.3314.5314.9582.2 1.4-.3313.4419-.9581.5314-1.4.2z" clip-rule="evenodd"></path><path d="m12.0332 21.4466 5.8524.7803c1.6423.219 3.1512-.9349 3.3702-2.5772l1.4713-11.03506c.219-1.64232-.9349-3.1512-2.5772-3.37017l-.9171-.12228c.005.03184.0097.06382.014.09595l.2611 1.95842.3777.05036c.5474.07299.932.57595.8591 1.12339l-.5402 4.05099.5136 3.8519c.292 2.1898-1.2465 4.2016-3.4362 4.4936z"></path>
    </g>
</svg>