<svg viewBox="0 0 24 24" fill="currentColor" aria-hidden="true">
    <path fill-rule="evenodd" d="M5 12C4.44728 12 4 12.4473 4 13V19C4 19.5527 4.44728 20 5 20H19C19.5527 20 20 19.5527 20 19V13C20 12.4473 19.5527 12 19 12H5ZM2 13C2 11.3427 3.34272 10 5 10H19C20.6573 10 22 11.3427 22 13V19C22 20.6573 20.6573 22 19 22H5C3.34272 22 2 20.6573 2 19V13Z" clip-rule="evenodd"></path>
    <path fill-rule="evenodd" d="M4 7C4 6.44772 4.44772 6 5 6H19C19.5523 6 20 6.44772 20 7C20 7.55228 19.5523 8 19 8H5C4.44772 8 4 7.55228 4 7Z" clip-rule="evenodd"></path>
    <path fill-rule="evenodd" d="M6 3C6 2.44772 6.44772 2 7 2H17C17.5523 2 18 2.44772 18 3C18 3.55228 17.5523 4 17 4H7C6.44772 4 6 3.55228 6 3Z" clip-rule="evenodd"></path>
</svg>