<svg viewBox="0 0 24 24" fill="currentColor" aria-hidden="true">
    <path d="M2 18.5247H4.29385L5.31385 15.2874H9.85154L10.8792 18.5247H13.1731L8.82308 6H6.35L2 18.5247ZM7.51462 8.32604H7.65923L9.30769 13.5594H5.86615L7.51462 8.32604ZM17.0462 18.6806C18.27 18.6806 19.2554 18.1428 19.7654 17.2223H19.91V18.5247H22V12.0408C22 10.0356 20.6577 8.85542 18.27 8.85542C16.0608 8.85542 14.5654 9.91417 14.3615 11.5115L14.3523 11.5894H16.3492L16.3585 11.555C16.5708 10.9301 17.1992 10.5742 18.1677 10.5742C19.3062 10.5742 19.91 11.0944 19.91 12.0408V12.8567L17.5223 13.0041C15.2623 13.1431 13.9962 14.1324 13.9962 15.8251V15.8427C13.9962 17.5699 15.2792 18.6806 17.0462 18.6806ZM16.0862 15.7381V15.7213C16.0862 14.9398 16.6385 14.4967 17.8192 14.4188L19.91 14.2798V15.0437C19.91 16.1719 18.9662 17.0229 17.6923 17.0229C16.7577 17.0229 16.0862 16.5455 16.0862 15.7381Z"></path>
</svg>